<svg xmlns="http://www.w3.org/2000/svg" viewBox="0 0 100 100" width="500" height="500" class="illustration"><g id="Layer_1" data-name="Layer 1"><rect x="34.17" y="77.08" width="31.28" height="6.46" fill="#0064f4"></rect><path d="M55.37,67H44.53s.8,6.28-3,10.1H58.39C54.57,73.3,55.37,67,55.37,67Z" fill="#0099f5"></path><rect x="17.82" y="57.87" width="64.78" height="9.06" fill="#0064f4"></rect><rect x="17.82" y="23.48" width="65.15" height="34.4" fill="#fff"></rect><rect x="78.19" y="23.48" width="4.41" height="34.4" fill="#0099f5" opacity="0.1"></rect><path d="M42.21,40.77a6.46,6.46,0,0,1,5.27,6.35h0A2.89,2.89,0,0,1,44.59,50H36.27a2.89,2.89,0,0,1-2.89-2.9h0a6.45,6.45,0,0,1,5.35-6.36" fill="#0099f5"></path><rect x="35.7" y="29.53" width="9.32" height="10.96" rx="4.66" fill="#ffd44d"></rect><path d="M35.68,34.82s-.4-5.11,4.88-5.25S45,35,45,35s-1.82.15-2.54-1A19,19,0,0,1,35.68,34.82Z" fill="#0099f5"></path><path d="M42.29,40.11v1.4a1.86,1.86,0,0,1-1.86,1.85h0a1.85,1.85,0,0,1-1.85-1.85V40.15" fill="#ff9515"></path><path d="M61.77,40.77A6.46,6.46,0,0,1,67,47.12h0a2.9,2.9,0,0,1-2.9,2.9H55.83a2.9,2.9,0,0,1-2.9-2.9h0a6.45,6.45,0,0,1,5.35-6.36" fill="#f0457d"></path><rect x="55.26" y="29.53" width="9.32" height="10.96" rx="4.66" fill="#ffd44d"></rect><path d="M55.24,34.82s-.41-5.11,4.88-5.25S64.56,35,64.56,35s-2,.72-2.19-1C62.37,34,58.07,35.24,55.24,34.82Z" fill="#f0457d"></path><path d="M61.84,40.11v1.4A1.85,1.85,0,0,1,60,43.36h0a1.85,1.85,0,0,1-1.86-1.85V40.15" fill="#ff9515"></path></g><g id="Layer_2" data-name="Layer 2"><rect x="34.29" y="77.04" width="31.28" height="6.46" fill="none" stroke="#231f20" stroke-miterlimit="10" stroke-width="1.5"></rect><path d="M55.35,66.93H44.52s.79,6.29-3,10.11H58.37C54.56,73.22,55.35,66.93,55.35,66.93Z" fill="none" stroke="#231f20" stroke-miterlimit="10" stroke-width="1.5"></path><polyline points="82.6 37.35 82.6 66.93 17.82 66.93 17.82 23.48 70.36 23.48 82.6 23.48 82.6 30.38" fill="none" stroke="#231f20" stroke-miterlimit="10" stroke-width="1.5"></polyline><line x1="25.01" y1="57.87" x2="82.6" y2="57.87" fill="none" stroke="#231f20" stroke-miterlimit="10" stroke-width="1.5"></line><line x1="37.7" y1="53.62" x2="43.18" y2="53.62" fill="none" stroke="#231f20" stroke-miterlimit="10" stroke-width="1.5"></line><line x1="57.63" y1="53.62" x2="63.11" y2="53.62" fill="none" stroke="#231f20" stroke-miterlimit="10" stroke-width="1.5"></line><path d="M42.18,40.9a6.47,6.47,0,0,1,5.28,6.35h0a2.9,2.9,0,0,1-2.9,2.9H36.24a2.89,2.89,0,0,1-2.89-2.9h0a6.44,6.44,0,0,1,1-3.5,4.89,4.89,0,0,1,1.84-1.87,8.64,8.64,0,0,1,2.48-1" fill="none" stroke="#231f20" stroke-linejoin="round" stroke-width="1.5"></path><rect x="35.74" y="29.66" width="9.32" height="10.96" rx="4.66" fill="none" stroke="#231f20" stroke-linejoin="round" stroke-width="1.5"></rect><path d="M42.33,40.2v1.4a1.85,1.85,0,0,1-1.86,1.85h0a1.85,1.85,0,0,1-1.85-1.85V40.24" fill="none" stroke="#231f20" stroke-linejoin="round" stroke-width="1.5"></path><path d="M35.74,35.14A8.92,8.92,0,0,0,42.46,34a5.46,5.46,0,0,0,2.6,1.12" fill="none" stroke="#231f20" stroke-miterlimit="10" stroke-width="1.5"></path><path d="M61.74,40.9A6.46,6.46,0,0,1,67,47.25h0a2.89,2.89,0,0,1-2.89,2.9H55.8a2.9,2.9,0,0,1-2.9-2.9h0a6.37,6.37,0,0,1,1-3.5,4.89,4.89,0,0,1,1.84-1.87,8.58,8.58,0,0,1,2.47-1" fill="none" stroke="#231f20" stroke-linejoin="round" stroke-width="1.5"></path><rect x="55.3" y="29.66" width="9.32" height="10.96" rx="4.66" fill="none" stroke="#231f20" stroke-linejoin="round" stroke-width="1.5"></rect><path d="M61.88,40.2v1.4A1.85,1.85,0,0,1,60,43.45h0a1.85,1.85,0,0,1-1.86-1.85V40.24" fill="none" stroke="#231f20" stroke-linejoin="round" stroke-width="1.5"></path><path d="M55.3,35.14A9.32,9.32,0,0,0,62.18,34a4.44,4.44,0,0,0,2.44,1.12" fill="none" stroke="#231f20" stroke-miterlimit="10" stroke-width="1.5"></path></g></svg>